<?xml version="1.0" encoding="utf-8"?>
<!-- Generator: Adobe Illustrator 27.5.0, SVG Export Plug-In . SVG Version: 6.00 Build 0)  -->
<svg version="1.1" id="Layer_1" xmlns="http://www.w3.org/2000/svg" xmlns:xlink="http://www.w3.org/1999/xlink" x="0px" y="0px"
	 viewBox="0 0 640 480" style="enable-background:new 0 0 640 480;" xml:space="preserve">
<style type="text/css">
	.st0{fill:none;}
	.st1{font-family:'Copperplate-Light';}
	.st2{font-size:64.1488px;}
	.st3{fill:#004FFF;stroke:#000000;stroke-miterlimit:10;}
</style>
<rect x="249.21" y="237.28" class="st0" width="259.62" height="53.21"/>
<text transform="matrix(0.685 0 0 1 226.1338 296.4893)" class="st1 st2">Keyhole</text>
<path class="st3" d="M312.67,26.38L161.38,146.9l107.71,88.57c-0.42-4.11-0.66-8.34-0.66-12.66c0-6.23,0.46-12.27,1.33-18.04v30.7
	h28.41v-48.58h-28.41c-17.45-9.6-28.9-25.65-28.9-43.83c0-29.38,29.85-53.21,66.67-53.21c36.82,0,66.67,23.82,66.67,53.21
	c0,17.55-10.66,33.12-27.08,42.81h-23.54v46.9h29.06v-20.02c0.27,3.29,0.41,6.65,0.41,10.07c0,3.38-0.15,6.7-0.41,9.95
	l101.05-116.64L312.67,26.38z"/>
</svg>
