<?xml version="1.0" standalone="no"?>
<!DOCTYPE svg PUBLIC "-//W3C//DTD SVG 20010904//EN"
 "http://www.w3.org/TR/2001/REC-SVG-20010904/DTD/svg10.dtd">
<svg version="1.0" xmlns="http://www.w3.org/2000/svg"
 width="1280.000000pt" height="1280.000000pt" viewBox="0 0 1280.000000 1280.000000"
 preserveAspectRatio="xMidYMid meet">
<metadata>
Created by potrace 1.14, written by Peter Selinger 2001-2017
</metadata>
<g transform="translate(0.000000,1280.000000) scale(0.100000,-0.100000)"
fill="#000000" stroke="none">
<path d="M6205 10647 c-28 -21 -65 -52 -82 -68 -18 -16 -33 -26 -33 -22 0 4
-6 0 -12 -9 -7 -8 -47 -41 -88 -74 -41 -32 -80 -63 -86 -69 -6 -5 -22 -17 -34
-25 -23 -16 -53 -39 -85 -68 -11 -10 -40 -33 -65 -52 -51 -39 -77 -60 -94 -75
-6 -5 -29 -23 -51 -40 -46 -34 -81 -63 -107 -87 -10 -10 -22 -18 -28 -18 -5 0
-10 -3 -10 -7 0 -5 -17 -19 -37 -33 -20 -14 -46 -34 -58 -45 -11 -11 -50 -42
-85 -70 -36 -27 -72 -55 -80 -62 -13 -11 -138 -111 -240 -193 -28 -22 -167
-132 -225 -178 -5 -4 -48 -38 -95 -75 -47 -38 -92 -74 -100 -80 -8 -7 -71 -57
-140 -112 -69 -54 -129 -103 -135 -107 -49 -38 -104 -82 -120 -96 -15 -14
-269 -215 -320 -255 -5 -4 -21 -17 -35 -28 -14 -12 -50 -40 -80 -63 -30 -22
-59 -46 -65 -52 -5 -6 -64 -53 -130 -105 -66 -51 -122 -96 -125 -99 -3 -3 -23
-18 -45 -35 -65 -47 -112 -95 -95 -95 8 0 25 -11 38 -24 12 -13 45 -41 72 -62
28 -21 50 -42 50 -46 0 -4 6 -8 14 -8 8 0 16 -3 18 -7 2 -5 41 -39 88 -78 47
-38 87 -72 90 -75 3 -3 41 -34 85 -69 44 -36 87 -71 95 -78 8 -7 29 -23 45
-37 17 -14 76 -63 132 -110 57 -47 105 -86 107 -86 3 0 18 -12 33 -26 15 -15
60 -52 98 -82 39 -30 78 -63 87 -71 9 -9 23 -21 30 -26 7 -6 51 -42 98 -80 47
-38 90 -73 95 -78 6 -4 21 -17 36 -30 14 -12 42 -35 63 -52 22 -16 44 -35 50
-40 6 -6 36 -30 66 -55 30 -25 60 -49 67 -55 7 -5 18 -15 25 -20 19 -15 132
-109 138 -115 3 -3 28 -23 55 -45 28 -21 52 -42 55 -45 3 -3 41 -34 85 -69 44
-35 85 -69 90 -75 6 -6 36 -31 68 -55 31 -24 57 -47 57 -52 0 -5 7 -9 15 -9 8
0 15 -5 15 -11 0 -8 5 -8 15 1 9 8 15 8 15 2 0 -7 10 -8 29 -2 16 4 32 6 35 2
9 -8 67 -8 73 1 2 4 13 3 23 -3 12 -7 20 -6 22 1 2 7 12 7 31 0 15 -6 27 -7
27 -3 0 5 15 7 33 5 77 -8 99 -8 103 -1 3 5 14 4 24 -2 13 -7 20 -6 22 2 3 8
10 8 26 -1 12 -6 22 -8 22 -3 0 9 64 7 80 -3 6 -3 10 2 11 12 5 88 2 967 -2
975 -5 7 -108 11 -300 12 -224 1 -293 4 -297 14 -2 6 -10 12 -17 12 -7 0 -27
11 -43 25 -17 14 -35 25 -41 25 -6 0 -11 4 -11 8 0 4 -13 15 -28 24 -34 20
-156 140 -192 187 -14 19 -32 41 -41 51 -8 9 -18 23 -22 31 -4 8 -18 32 -32
54 -13 22 -29 51 -35 65 -6 14 -13 32 -17 40 -3 8 -7 17 -8 20 0 3 -8 28 -17
55 -25 76 -30 109 -35 240 -4 103 -1 133 20 215 24 91 82 231 99 238 4 2 8 8
8 14 0 15 84 128 139 187 28 29 51 51 51 49 0 -3 20 14 45 38 25 24 49 44 54
44 5 0 16 6 23 13 63 61 401 221 422 199 3 -3 6 -1 6 4 0 5 8 10 18 11 9 0 26
3 37 6 56 15 115 26 160 32 28 3 61 8 75 11 68 12 435 -1 435 -16 0 -2 56 -11
78 -13 9 -1 17 -5 17 -10 0 -4 4 -6 8 -3 5 3 26 0 48 -6 21 -6 42 -11 47 -10
4 1 7 -2 7 -6 0 -4 10 -9 22 -9 13 -1 32 -6 43 -12 11 -5 36 -16 55 -24 89
-38 130 -58 194 -96 38 -22 78 -48 90 -58 12 -10 33 -26 47 -35 32 -21 201
-189 195 -195 -2 -2 9 -18 24 -34 41 -46 134 -239 141 -294 1 -5 5 -20 10 -32
18 -48 28 -254 14 -313 -3 -14 -8 -41 -11 -60 -3 -19 -8 -38 -11 -43 -2 -4 -7
-19 -9 -34 -11 -58 -94 -216 -160 -302 -45 -59 -188 -191 -257 -237 l-75 -51
-218 -1 c-121 0 -229 -1 -241 -1 l-22 -1 0 -478 0 -478 281 1 c154 0 285 -3
291 -7 11 -7 50 31 112 107 17 20 46 54 65 75 19 21 49 55 67 76 17 22 44 53
60 71 25 28 73 84 120 139 17 20 104 120 147 168 10 12 35 41 55 65 20 25 45
54 56 66 19 19 97 109 155 178 14 16 36 41 49 56 21 23 86 99 134 155 21 24
113 129 142 163 11 12 34 39 50 58 17 20 39 46 50 59 11 12 45 51 75 86 30 35
65 74 77 87 11 13 36 42 55 65 18 23 40 49 49 57 9 9 45 50 80 91 35 41 78 91
95 110 18 19 43 49 55 65 13 17 26 32 30 35 7 6 81 90 139 159 25 29 56 66 70
81 14 15 35 39 47 54 l23 26 -43 26 c-23 15 -61 40 -85 55 -24 16 -47 29 -53
29 -5 0 -9 4 -9 9 0 5 -10 13 -22 17 -13 4 -25 10 -28 13 -5 7 -162 108 -235
151 -22 14 -44 28 -50 32 -19 15 -117 78 -121 78 -2 0 -30 17 -62 38 -31 21
-86 57 -122 80 -36 22 -69 45 -75 49 -5 5 -17 12 -25 16 -29 15 -139 84 -202
128 -15 11 -29 19 -32 19 -3 0 -31 17 -63 39 -90 60 -184 121 -188 121 -1 0
-39 24 -83 53 -168 109 -262 167 -271 167 -5 0 -11 3 -13 8 -5 10 -146 102
-158 102 -5 0 -10 4 -10 8 0 5 -15 16 -32 25 -18 9 -109 66 -203 126 -93 60
-215 138 -270 172 -55 35 -101 66 -103 71 -2 4 -7 8 -12 8 -8 0 -232 139 -255
158 -6 5 -31 -8 -60 -31z m-820 -3847 c3 -5 1 -10 -4 -10 -6 0 -11 5 -11 10 0
6 2 10 4 10 3 0 8 -4 11 -10z"/>
<path d="M6201 6230 c-5 -11 -7 -852 -2 -942 1 -14 10 -18 39 -18 l38 0 -1
138 c-1 75 3 143 8 150 5 7 6 12 0 12 -5 0 -9 24 -8 54 0 30 3 52 7 50 5 -3 8
0 8 5 0 6 -4 11 -9 11 -6 0 -6 12 -1 30 5 17 9 33 9 35 -1 21 14 65 22 65 5 0
9 5 9 10 0 23 44 53 84 55 89 7 125 -75 117 -265 -1 -14 -1 -32 -1 -40 0 -8 0
-35 0 -60 -1 -51 -1 -151 0 -177 0 -10 0 -30 0 -45 0 -26 3 -28 40 -28 l41 0
0 53 c-1 28 -1 61 -1 72 0 11 -2 29 -4 40 -2 11 0 29 4 40 4 11 4 29 0 40 -4
11 -4 34 1 52 4 18 3 35 -2 38 -4 3 -5 15 0 27 4 12 5 36 1 54 -4 18 -4 38 1
45 4 7 5 17 2 23 -3 5 -8 20 -10 33 -1 12 -5 34 -6 47 -2 13 -14 43 -25 68
-30 60 -87 93 -149 84 -24 -3 -51 -12 -59 -21 -8 -8 -20 -18 -27 -22 -7 -5
-17 -17 -23 -27 -25 -46 -29 -21 -29 153 l1 179 -34 -1 c-20 -1 -36 -8 -41
-17z"/>
<path d="M7296 6240 c-2 -5 0 -934 3 -956 2 -17 50 -24 64 -10 9 9 12 131 11
487 -1 261 -2 476 -3 479 -1 3 -17 6 -37 6 -19 0 -37 -3 -38 -6z"/>
<path d="M4609 6165 c0 -22 0 -231 0 -465 l-1 -425 44 -3 44 -3 -1 213 c-1
117 0 217 3 221 2 4 46 -54 97 -130 52 -76 98 -142 102 -148 5 -5 30 -43 57
-82 l50 -73 53 0 c29 0 53 2 53 5 0 11 -192 290 -201 293 -5 2 -9 8 -9 13 0 5
-28 49 -62 99 l-61 91 21 29 c12 17 32 45 45 63 12 17 28 36 35 40 6 4 12 14
12 22 0 7 3 15 8 17 7 3 78 97 112 149 8 12 23 31 33 41 9 10 15 18 12 18 -3
0 3 10 15 22 11 12 20 25 20 28 0 7 -107 7 -113 -1 -2 -2 -26 -35 -52 -74 -27
-38 -53 -73 -58 -76 -5 -4 -14 -16 -20 -28 -17 -30 -141 -200 -147 -201 -3 0
-5 87 -5 193 l0 192 -42 0 -43 1 -1 -41z"/>
<path d="M5261 5972 c-101 -52 -153 -173 -153 -357 -1 -108 19 -197 55 -250
22 -32 85 -94 99 -96 14 -2 28 -6 31 -9 9 -9 92 -6 140 5 90 23 103 35 99 94
l-4 49 -51 -26 c-76 -39 -153 -40 -205 -3 -45 34 -78 104 -77 170 l0 44 175 1
175 1 1 74 c2 117 -35 226 -93 277 -50 43 -136 55 -192 26z m145 -107 c19 -15
32 -30 29 -35 -3 -4 0 -10 5 -12 12 -4 29 -68 30 -108 l0 -25 -139 0 -140 -1
4 41 c6 67 52 142 95 157 42 14 84 7 116 -17z"/>
<path d="M6870 5972 c-42 -20 -76 -57 -102 -110 -25 -53 -24 -49 -35 -117 -10
-59 -9 -189 1 -259 9 -65 52 -154 89 -186 81 -69 188 -61 260 19 15 17 27 33
27 35 0 2 8 21 17 42 17 41 21 53 26 94 2 14 5 30 8 35 6 12 3 169 -4 212 -25
145 -91 236 -180 247 -57 7 -72 5 -107 -12z m146 -119 c44 -46 59 -108 58
-243 0 -98 -3 -123 -23 -168 -27 -61 -65 -92 -112 -92 -50 0 -103 63 -118 140
-20 103 -14 237 14 308 38 94 120 119 181 55z"/>
<path d="M7660 5973 c-68 -30 -139 -152 -150 -258 -28 -291 73 -470 260 -460
52 3 68 7 95 22 11 6 25 12 30 13 35 8 40 17 40 68 0 28 -1 52 -2 52 -1 0 -25
-12 -54 -27 -73 -36 -155 -40 -201 -10 -30 20 -92 122 -83 137 2 4 0 22 -4 42
-6 25 -5 38 3 40 6 2 89 3 184 3 l173 -1 -2 70 c-4 123 -29 207 -83 269 -43
50 -139 69 -206 40z m153 -116 c33 -34 57 -96 57 -149 0 -23 0 -23 -139 -23
l-139 -1 3 31 c4 49 17 95 26 95 5 0 9 6 9 14 0 26 57 62 104 65 39 2 49 -2
79 -32z"/>
<path d="M5635 5967 c-13 -7 -14 -11 -3 -24 7 -9 12 -18 10 -20 -3 -4 7 -51
15 -73 4 -8 5 -19 4 -24 -1 -4 3 -14 9 -20 5 -7 7 -16 3 -19 -3 -4 -1 -7 6 -7
7 0 10 -4 7 -9 -3 -5 2 -33 10 -62 9 -30 17 -58 19 -64 1 -5 5 -17 8 -25 3 -8
11 -35 17 -60 10 -41 30 -110 65 -233 9 -30 11 -56 6 -70 -5 -12 -9 -25 -9
-30 -3 -22 -26 -85 -37 -100 -8 -11 -31 -21 -54 -24 -23 -3 -42 -11 -42 -17
-9 -78 -4 -86 52 -82 89 7 112 38 166 226 13 47 25 90 27 95 1 6 5 19 9 30 3
11 8 31 11 45 3 14 17 66 31 115 14 50 28 99 30 110 3 11 14 51 25 90 11 38
27 97 37 130 9 33 16 65 15 72 -2 6 2 14 8 18 5 3 10 13 10 21 0 10 -12 14
-43 14 l-44 0 -11 -47 c-7 -27 -15 -57 -18 -68 -3 -11 -7 -31 -10 -44 -3 -14
-7 -28 -10 -33 -3 -4 -7 -16 -9 -25 -5 -29 -35 -145 -46 -178 -5 -16 -17 -57
-26 -90 -16 -58 -16 -59 -25 -30 -5 17 -11 38 -13 48 -2 10 -7 27 -10 37 -3
10 -8 27 -10 38 -2 10 -12 50 -23 88 -11 38 -34 121 -52 186 -31 110 -34 116
-61 120 -15 3 -35 0 -44 -5z"/>
</g>
</svg>
